# xmcd
#
# Track frame offsets:
#	150
#	20945
#	43627
#	79552
#	94152
#	110500
#	135530
#	158315
#	177662
#	199660
#
# Disc length: 3088 seconds
#
# Revision: 7
# Processed by: cddbd v1.5.2PL0 Copyright (c) Steve Scherf et al.
# Submitted via: EZCDAudioConverter 1.5.5.1
#
DISCID=7c0c0e0a
DTITLE=The Tractors - Fast Girl
DYEAR=2001
DGENRE=Country
TTITLE0=Babalou
TTITLE1=Can't Get Nowhere
TTITLE2=Ready To Cry
TTITLE3=Nine Eleven
TTITLE4=It's A Beautiful Thing
TTITLE5=Comptuer Controlled
TTITLE6=Fast Girl
TTITLE7=Don't Ever Take My Picture Down
TTITLE8=Higher Ground
TTITLE9=A Little Place Of Our Own/On The Road Again
EXTD=
EXTT0=
EXTT1=
EXTT2=
EXTT3=
EXTT4=
EXTT5=
EXTT6=
EXTT7=
EXTT8=
EXTT9=
PLAYORDER=
